<?xml version="1.0" encoding="UTF-8" standalone="no"?>
<!-- Created with Inkscape (http://www.inkscape.org/) -->

<svg
   xmlns:dc="http://purl.org/dc/elements/1.1/"
   xmlns:cc="http://creativecommons.org/ns#"
   xmlns:rdf="http://www.w3.org/1999/02/22-rdf-syntax-ns#"
   xmlns:svg="http://www.w3.org/2000/svg"
   xmlns="http://www.w3.org/2000/svg"
   xmlns:sodipodi="http://sodipodi.sourceforge.net/DTD/sodipodi-0.dtd"
   xmlns:inkscape="http://www.inkscape.org/namespaces/inkscape"
   width="210mm"
   height="297mm"
   viewBox="0 0 210 297"
   version="1.1"
   id="svg4750"
   inkscape:version="0.92.1 r15371"
   sodipodi:docname="2.svg">
  <defs
     id="defs4744" />
  <sodipodi:namedview
     id="base"
     pagecolor="#ffffff"
     bordercolor="#666666"
     borderopacity="1.0"
     inkscape:pageopacity="0.0"
     inkscape:pageshadow="2"
     inkscape:zoom="0.35"
     inkscape:cx="400"
     inkscape:cy="560"
     inkscape:document-units="mm"
     inkscape:current-layer="layer1"
     showgrid="false"
     inkscape:window-width="1280"
     inkscape:window-height="616"
     inkscape:window-x="-8"
     inkscape:window-y="-8"
     inkscape:window-maximized="1" />
  <metadata
     id="metadata4747">
    <rdf:RDF>
      <cc:Work
         rdf:about="">
        <dc:format>image/svg+xml</dc:format>
        <dc:type
           rdf:resource="http://purl.org/dc/dcmitype/StillImage" />
        <dc:title></dc:title>
      </cc:Work>
    </rdf:RDF>
  </metadata>
  <g
     inkscape:label="Layer 1"
     inkscape:groupmode="layer"
     id="layer1">
    <path
       inkscape:connector-curvature="0"
       d="m 105.83333,141.77778 c -1.56351,0 -2.82222,1.25871 -2.82222,2.82222 v 1.41111 h 1.41111 V 144.6 c 0,-0.78176 0.62936,-1.41111 1.41111,-1.41111 0.78176,0 1.41111,0.62935 1.41111,1.41111 v 1.41111 c 0,0.31821 -0.10585,0.86512 -0.28222,1.10067 -1.25963,2.56939 -2.61852,4.83408 -3.95111,7.366 v 1.41111 h 2.82222 2.82223 v -1.41111 -1.41111 h -1.41112 v 1.41111 h -1.41111 -1.27 c 1.26682,-2.23392 2.31939,-4.39472 3.52778,-6.66045 0.35281,-0.47111 0.56445,-1.16975 0.56445,-1.80622 V 144.6 c 0,-1.56351 -1.25872,-2.82222 -2.82223,-2.82222 z"
       id="rect3163-52-9-8-1-38"
       style="fill:#000000;fill-opacity:1;stroke:none;stroke-width:0.28222224" />
  </g>
</svg>
