<?xml version="1.0" encoding="UTF-8" standalone="no"?>
<!-- Created with Inkscape (http://www.inkscape.org/) -->

<svg
   xmlns:dc="http://purl.org/dc/elements/1.1/"
   xmlns:cc="http://creativecommons.org/ns#"
   xmlns:rdf="http://www.w3.org/1999/02/22-rdf-syntax-ns#"
   xmlns:svg="http://www.w3.org/2000/svg"
   xmlns="http://www.w3.org/2000/svg"
   xmlns:sodipodi="http://sodipodi.sourceforge.net/DTD/sodipodi-0.dtd"
   xmlns:inkscape="http://www.inkscape.org/namespaces/inkscape"
   width="210mm"
   height="297mm"
   viewBox="0 0 210 297"
   version="1.1"
   id="svg5904"
   inkscape:version="0.92.1 r15371"
   sodipodi:docname="Q.svg">
  <defs
     id="defs5898" />
  <sodipodi:namedview
     id="base"
     pagecolor="#ffffff"
     bordercolor="#666666"
     borderopacity="1.0"
     inkscape:pageopacity="0.0"
     inkscape:pageshadow="2"
     inkscape:zoom="0.35"
     inkscape:cx="400"
     inkscape:cy="560"
     inkscape:document-units="mm"
     inkscape:current-layer="layer1"
     showgrid="false"
     inkscape:window-width="1280"
     inkscape:window-height="616"
     inkscape:window-x="-8"
     inkscape:window-y="-8"
     inkscape:window-maximized="1" />
  <metadata
     id="metadata5901">
    <rdf:RDF>
      <cc:Work
         rdf:about="">
        <dc:format>image/svg+xml</dc:format>
        <dc:type
           rdf:resource="http://purl.org/dc/dcmitype/StillImage" />
        <dc:title></dc:title>
      </cc:Work>
    </rdf:RDF>
  </metadata>
  <g
     inkscape:label="Layer 1"
     inkscape:groupmode="layer"
     id="layer1">
    <path
       inkscape:connector-curvature="0"
       style="fill:#000000;fill-opacity:1;stroke:none;stroke-width:0.28222224"
       d="m 105.83333,141.07222 c -1.55865,0 -2.82222,1.26355 -2.82222,2.82222 v 8.46667 c 0,1.55867 1.26357,2.82222 2.82222,2.82222 0.1224,0 0.24331,-0.0114 0.36159,-0.0265 0.48342,0.86064 1.40326,1.43757 2.46064,1.43757 v -1.41111 c -0.46274,0 -0.87156,-0.22917 -1.12889,-0.57327 0.68422,-0.51499 1.12889,-1.32662 1.12889,-2.24895 v -8.46667 c 0,-1.55867 -1.26357,-2.82222 -2.82223,-2.82222 z m 0,1.41111 c 0.77933,0 1.41111,0.63178 1.41111,1.41111 v 8.46667 c 0,0.20199 -0.047,0.3907 -0.12347,0.56444 -0.35975,-1.14482 -1.43518,-1.97555 -2.69875,-1.97555 v -7.05556 c 0,-0.77933 0.63178,-1.41111 1.41111,-1.41111 z m -1.41111,9.87778 c 0.77933,0 1.41111,0.63177 1.41111,1.41111 -0.77933,0 -1.41111,-0.63178 -1.41111,-1.41111 z"
       id="path17235-1-1" />
  </g>
</svg>
