<?xml version="1.0" encoding="UTF-8" standalone="no"?>
<!-- Created with Inkscape (http://www.inkscape.org/) -->

<svg
   xmlns:dc="http://purl.org/dc/elements/1.1/"
   xmlns:cc="http://creativecommons.org/ns#"
   xmlns:rdf="http://www.w3.org/1999/02/22-rdf-syntax-ns#"
   xmlns:svg="http://www.w3.org/2000/svg"
   xmlns="http://www.w3.org/2000/svg"
   xmlns:sodipodi="http://sodipodi.sourceforge.net/DTD/sodipodi-0.dtd"
   xmlns:inkscape="http://www.inkscape.org/namespaces/inkscape"
   width="210mm"
   height="297mm"
   viewBox="0 0 210 297"
   version="1.1"
   id="svg6233"
   inkscape:version="0.92.1 r15371"
   sodipodi:docname="spade.svg">
  <defs
     id="defs6227" />
  <sodipodi:namedview
     id="base"
     pagecolor="#ffffff"
     bordercolor="#666666"
     borderopacity="1.0"
     inkscape:pageopacity="0.0"
     inkscape:pageshadow="2"
     inkscape:zoom="0.35"
     inkscape:cx="400"
     inkscape:cy="560"
     inkscape:document-units="mm"
     inkscape:current-layer="layer1"
     showgrid="false"
     inkscape:window-width="1280"
     inkscape:window-height="616"
     inkscape:window-x="-8"
     inkscape:window-y="-8"
     inkscape:window-maximized="1" />
  <metadata
     id="metadata6230">
    <rdf:RDF>
      <cc:Work
         rdf:about="">
        <dc:format>image/svg+xml</dc:format>
        <dc:type
           rdf:resource="http://purl.org/dc/dcmitype/StillImage" />
        <dc:title></dc:title>
      </cc:Work>
    </rdf:RDF>
  </metadata>
  <g
     inkscape:label="Layer 1"
     inkscape:groupmode="layer"
     id="layer1">
    <path
       style="fill:#000000;fill-opacity:1;stroke:none;stroke-width:0.28222224"
       d="m 106.53889,150.38556 c 0.14111,0.56444 0.70555,1.97555 1.69333,1.97555 1.27,0 1.83445,-1.12889 1.83445,-2.54 0,-0.98778 -0.36392,-1.63862 -0.70556,-2.39889 -0.36377,-0.80951 -0.90019,-1.5321 -1.41111,-2.25778 -0.6555,-0.93103 -2.11667,-2.68111 -2.11667,-2.68111 0,0 -1.46116,1.75008 -2.11666,2.68111 -0.51092,0.72568 -1.04735,1.44827 -1.41111,2.25778 -0.34164,0.76027 -0.70556,1.41111 -0.70556,2.39889 0,1.41111 0.56444,2.54 1.83444,2.54 0.98778,0 1.55223,-1.41111 1.69334,-1.97555 0.14111,-0.14112 0.14111,0 0.14111,0.14111 -0.14111,1.12889 -0.14111,1.41111 -0.28222,2.25777 -0.14111,0.84667 -0.56445,2.39889 -0.56445,2.39889 0.70556,-0.28222 2.11667,-0.28222 2.82222,0 0,0 -0.42333,-1.55222 -0.56444,-2.39889 -0.14111,-0.84666 -0.14111,-1.12888 -0.28222,-2.25777 0,-0.14111 0,-0.28223 0.14111,-0.14111 z"
       id="path3037-7-4-02"
       inkscape:connector-curvature="0"
       sodipodi:nodetypes="cssaacaassccsccscc" />
  </g>
</svg>
